<?xml version="1.0" encoding="UTF-8" standalone="no"?>
<svg
   xmlns:dc="http://purl.org/dc/elements/1.1/"
   xmlns:cc="http://creativecommons.org/ns#"
   xmlns:rdf="http://www.w3.org/1999/02/22-rdf-syntax-ns#"
   xmlns:svg="http://www.w3.org/2000/svg"
   xmlns="http://www.w3.org/2000/svg"
   xmlns:sodipodi="http://sodipodi.sourceforge.net/DTD/sodipodi-0.dtd"
   xmlns:inkscape="http://www.inkscape.org/namespaces/inkscape"
   version="1.1"
   id="Layer_1"
   x="0px"
   y="0px"
   width="100px"
   height="100px"
   viewBox="0 0 100 100"
   enable-background="new 0 0 100 100"
   xml:space="preserve"
   inkscape:version="0.47 r22583"
   sodipodi:docname="braindump.png"
   inkscape:export-filename="/home/rod/Projects/rod/jekyll-test/img/braindump-32x32.png"
   inkscape:export-xdpi="28.868454"
   inkscape:export-ydpi="28.868454"><metadata
   id="metadata13"><rdf:RDF><cc:Work
       rdf:about=""><dc:format>image/svg+xml</dc:format><dc:type
         rdf:resource="http://purl.org/dc/dcmitype/StillImage" /><dc:title></dc:title></cc:Work></rdf:RDF></metadata><defs
   id="defs11"><inkscape:perspective
     sodipodi:type="inkscape:persp3d"
     inkscape:vp_x="0 : 50 : 1"
     inkscape:vp_y="0 : 1000 : 0"
     inkscape:vp_z="100 : 50 : 1"
     inkscape:persp3d-origin="50 : 33.333333 : 1"
     id="perspective15" /></defs><sodipodi:namedview
   pagecolor="#ffffff"
   bordercolor="#666666"
   borderopacity="1"
   objecttolerance="10"
   gridtolerance="10"
   guidetolerance="10"
   inkscape:pageopacity="0"
   inkscape:pageshadow="2"
   inkscape:window-width="1600"
   inkscape:window-height="853"
   id="namedview9"
   showgrid="false"
   showguides="true"
   inkscape:guide-bbox="true"
   inkscape:zoom="6.09"
   inkscape:cx="50"
   inkscape:cy="43.431856"
   inkscape:window-x="-2"
   inkscape:window-y="0"
   inkscape:window-maximized="1"
   inkscape:current-layer="Layer_1" />
<path
   d="M18.256,45.459C11.533,28.33,19.962,9,37.076,2.283c13.436-5.273,29.645-0.519,37.406,9.133L18.567,46.187  C18.465,45.942,18.354,45.706,18.256,45.459z"
   id="path3" />
<path
   d="M83.321,34.248c0.174,0.558,0.335,1.117,0.465,1.68c0.654,2.779,1.373,10.037,1.373,10.037l6.96,17.524  c0.134,0.316,0.201,0.669,0.201,1.043c0,1.479-1.211,2.685-2.694,2.685h-4.465v9.311c0,7.258-5.88,13.138-13.132,13.138h-5.219  v10.196H31.273V71.59c-7.558-5.944-12.465-15.101-12.706-25.403L83.321,34.248z"
   id="path5" />

<path
   id="path2821"
   d="M 86.999478,24.25708 96.102177,10.417326 79.568534,9.4527752 86.999478,24.25708 z m -2.686416,-9.889685 c -0.127746,0.0307 -3.130725,0.770193 -7.146879,2.9618 -4.02125,2.195352 -7.592037,5.090199 -10.492533,8.453931 l -5.316688,-3.14376 14.259077,8.430008 -4.646642,-2.747298 c 2.953971,-3.237029 6.153557,-5.393275 8.542833,-6.69661 3.376806,-1.8446 5.92726,-2.488579 5.951667,-2.49435 l 1.88907,-0.469538 -0.445776,-1.893582 -0.686485,-2.861419 -1.907644,0.460818 z" /></svg>