<?xml version="1.0" encoding="UTF-8" standalone="no"?>
<svg
   xmlns:dc="http://purl.org/dc/elements/1.1/"
   xmlns:cc="http://creativecommons.org/ns#"
   xmlns:rdf="http://www.w3.org/1999/02/22-rdf-syntax-ns#"
   xmlns:svg="http://www.w3.org/2000/svg"
   xmlns="http://www.w3.org/2000/svg"
   xmlns:xlink="http://www.w3.org/1999/xlink"
   xmlns:sodipodi="http://sodipodi.sourceforge.net/DTD/sodipodi-0.dtd"
   xmlns:inkscape="http://www.inkscape.org/namespaces/inkscape"
   version="1.1"
   id="Layer_1"
   x="0px"
   y="0px"
   width="100px"
   height="100px"
   viewBox="0 0 100 100"
   enable-background="new 0 0 100 100"
   xml:space="preserve"
   inkscape:version="0.47 r22583"
   sodipodi:docname="braindump-mod.svg"
   inkscape:export-filename="/home/rod/Projects/rod/jekyll-test/img/braindump-32x32.png"
   inkscape:export-xdpi="28.868454"
   inkscape:export-ydpi="28.868454"><metadata
   id="metadata13"><rdf:RDF><cc:Work
       rdf:about=""><dc:format>image/svg+xml</dc:format><dc:type
         rdf:resource="http://purl.org/dc/dcmitype/StillImage" /><dc:title></dc:title></cc:Work></rdf:RDF></metadata><defs
   id="defs11"><linearGradient
     inkscape:collect="always"
     id="linearGradient5070"><stop
       style="stop-color:#000000;stop-opacity:1;"
       offset="0"
       id="stop5072" /><stop
       style="stop-color:#000000;stop-opacity:0;"
       offset="1"
       id="stop5074" /></linearGradient><linearGradient
     id="linearGradient3606"><stop
       style="stop-color:#606d90;stop-opacity:1;"
       offset="0"
       id="stop5100" /><stop
       style="stop-color:#3f4c6b;stop-opacity:1;"
       offset="1"
       id="stop5068" /></linearGradient><inkscape:perspective
     sodipodi:type="inkscape:persp3d"
     inkscape:vp_x="-9.3509366 : 46.872016 : 1"
     inkscape:vp_y="0 : 1000 : 0"
     inkscape:vp_z="90.649063 : 46.872016 : 1"
     inkscape:persp3d-origin="40.649063 : 30.205349 : 1"
     id="perspective15" /><linearGradient
     inkscape:collect="always"
     xlink:href="#linearGradient5070"
     id="linearGradient5088"
     x1="-66.838257"
     y1="199.50739"
     x2="286.21429"
     y2="199.50739"
     gradientUnits="userSpaceOnUse"
     gradientTransform="matrix(0.90466636,0,0,2.5200404,-14.607906,-413.54734)" /><radialGradient
     inkscape:collect="always"
     xlink:href="#linearGradient3606"
     id="radialGradient5096"
     cx="109.68802"
     cy="199.50739"
     fx="109.68802"
     fy="199.50739"
     r="176.52628"
     gradientTransform="matrix(0.90466636,0,0,1.3057834,-14.607906,-171.29411)"
     gradientUnits="userSpaceOnUse" /></defs><sodipodi:namedview
   pagecolor="#ffffff"
   bordercolor="#666666"
   borderopacity="1"
   objecttolerance="10"
   gridtolerance="10"
   guidetolerance="10"
   inkscape:pageopacity="0"
   inkscape:pageshadow="2"
   inkscape:window-width="1600"
   inkscape:window-height="853"
   id="namedview9"
   showgrid="false"
   showguides="true"
   inkscape:guide-bbox="true"
   inkscape:zoom="0.76125"
   inkscape:cx="-154.8035"
   inkscape:cy="-54.53298"
   inkscape:window-x="-2"
   inkscape:window-y="0"
   inkscape:window-maximized="1"
   inkscape:current-layer="Layer_1" />
<rect
   style="fill:url(#radialGradient5096);fill-opacity:1;fill-rule:nonzero;stroke:url(#linearGradient5088);stroke-width:1.50989926"
   id="rect2822"
   width="318.49011"
   height="458.49011"
   x="-74.621895"
   y="-140.02573"
   inkscape:transform-center-x="23.173713"
   inkscape:transform-center-y="215.17585"
   inkscape:export-filename="/home/rod/Projects/rod/jekyll-test/img/startup-320x460.png"
   inkscape:export-xdpi="90"
   inkscape:export-ydpi="90" /><g
   id="g3627"
   transform="matrix(2.3825888,0,0,2.3825888,-50.482392,-77.863798)"
   style="fill:#1a1a1a"
   inkscape:export-filename="/home/rod/Projects/rod/jekyll-test/img/startup-320x460.png"
   inkscape:export-xdpi="90"
   inkscape:export-ydpi="90"><path
     style="fill:#1a1a1a"
     id="path3"
     d="M 18.256,45.459 C 11.533,28.33 19.962,9 37.076,2.283 50.512,-2.99 66.721,1.764 74.482,11.416 L 18.567,46.187 c -0.102,-0.245 -0.213,-0.481 -0.311,-0.728 z" /><path
     style="fill:#1a1a1a"
     id="path5"
     d="m 83.321,34.248 c 0.174,0.558 0.335,1.117 0.465,1.68 0.654,2.779 1.373,10.037 1.373,10.037 l 6.96,17.524 c 0.134,0.316 0.201,0.669 0.201,1.043 0,1.479 -1.211,2.685 -2.694,2.685 h -4.465 v 9.311 c 0,7.258 -5.88,13.138 -13.132,13.138 H 66.81 V 99.862 H 31.273 V 71.59 C 23.715,65.646 18.808,56.489 18.567,46.187 L 83.321,34.248 z" /><path
     style="fill:#1a1a1a"
     d="m 88.365448,25.007251 9.102699,-13.839754 -16.533643,-0.964551 7.430944,14.804305 z m -2.686416,-9.889685 c -0.127746,0.0307 -3.130725,0.770193 -7.146879,2.9618 -4.02125,2.195352 -7.592037,5.090199 -10.492533,8.453931 l -5.316688,-3.14376 14.259077,8.430008 -4.646642,-2.747298 c 2.953971,-3.237029 6.153557,-5.393275 8.542833,-6.69661 3.376806,-1.8446 5.92726,-2.488579 5.951667,-2.49435 l 1.88907,-0.469538 -0.445776,-1.893582 -0.686485,-2.861419 -1.907644,0.460818 z"
     id="path2821" /></g>


<text
   xml:space="preserve"
   style="font-size:40px;font-style:normal;font-weight:normal;fill:#1a1a1a;fill-opacity:1;stroke:none;font-family:Georgia;-inkscape-font-specification:Georgia"
   x="-60.322815"
   y="243.09688"
   id="text2816"
   inkscape:export-filename="/home/rod/Projects/rod/jekyll-test/img/startup-320x460.png"
   inkscape:export-xdpi="90"
   inkscape:export-ydpi="90"><tspan
     sodipodi:role="line"
     x="-60.322815"
     y="243.09688"
     id="tspan5106">Loading</tspan><tspan
     sodipodi:role="line"
     x="-60.322815"
     y="293.09686"
     id="tspan5110">HeyRod.com</tspan></text>
</svg>